<?xml version="1.0" encoding="utf-8"?>
<svg version="1.1" xmlns:xlink="http://www.w3.org/1999/xlink" width="38px" height="38px" xmlns="http://www.w3.org/2000/svg">
  <defs>
    <path d="M 0 0  L 1024 0  L 1024 1024  L 0 1024  Z " fill-rule="evenodd" fill="black" id="path10" />
    <clipPath id="clip11">
      <use xlink:href="#path10" />
    </clipPath>
    <filter x="-50.00%" y="-50.00%" width="200.00%" height="200.00%" filterUnits="objectBoundingBox" id="filter12">
      <feColorMatrix type="matrix" values="1 0 0 0 0  0 1 0 0 0  0 0 1 0 0  0 0 0 1 0  " in="SourceGraphic" />
    </filter>
    <filter x="753px" y="89px" width="38px" height="38px" filterUnits="userSpaceOnUse" id="filter13">
      <feOffset dx="1" dy="1" in="SourceAlpha" result="shadowOffsetInner" />
      <feGaussianBlur stdDeviation="2" in="shadowOffsetInner" result="shadowGaussian" />
      <feComposite in2="shadowGaussian" operator="atop" in="SourceAlpha" result="shadowComposite" />
      <feColorMatrix type="matrix" values="0 0 0 0 0  0 0 0 0 0  0 0 0 0 0  0 0 0 0.109803921568627 0  " in="shadowComposite" />
    </filter>
    <g id="widget14">
      <g transform="matrix(0.029296875 0 0 0.029296875 756 92 )" clip-path="url(#clip11)" filter="url(#filter12)">
        <path d="M988 663c0 179.492-145.508 325-325 325H363C183.507 988 38 842.492 38 663V363C38 183.507 183.507 38 363 38h300c179.492 0 325 145.507 325 325v300z" fill="#FFFFFF" p-id="2892"></path>
        <path d="M38 378.217s125.296 12.666 158.988 20.215c36.847 8.257 73.669 16.596 110.734 23.869 11.343 2.226 22.715 4.271 34.066 6.439 2.926 3.335 6.916-0.708 10.012 1.447l-0.039-0.089c5.354 10.206 9.628 20.53 8.342 32.615-0.498 4.683 2.292 9.44 1.922 14.487-0.583 7.967-2.172 10.269-9.621 12.573-1.342 0.415-2.912 0.503-3.965 1.359-12.124 9.86-27.621 10.993-41.611 15.878-23.366 8.156-46.568 17.09-70.848 22.242-26.507 5.629-52.854 12.321-80.033 14.254-3.504 0.248-6.884 1.272-10.316 1.925-3.926 0.698-7.65 2.055-11.335 3.569-18.344 7.53-25.699 24.124-19.34 42.9 6.263 18.498 19.249 31.09 35.213 41.21 2.3 1.459 5.373 1.993 6.211 5.196-0.613 1.834-0.682 3.585 0.271 5.4 9.173 17.47 19.873 33.392 38.513 42.418 15.173 7.35 30.345 6.828 45.774 1.574 34.564-11.768 65.159-30.75 94.694-51.786 19.874-14.153 39.429-28.674 57.929-44.593 8.015-6.897 15.596-14.195 22.277-22.42 1.295-1.594 2.014-4.66 5.284-3.154 1.811 6.165-2.616 10.061-5.462 14.405-2.577 3.933-6.34 6.844-9.94 9.85-3.993 3.339-6.107 7.092-2.375 12.082 1.435 1.915 1.792 4.248 1.559 6.69-0.958 10.014 0.813 18.806 7.259 27.405 3.625 4.837 4.648 12.63 1.424 19.374-34.717 23.599-69.164 47.554-100.76 75.329-7.221 6.345-14.377 12.759-20.5 20.203-7.249 8.812-7.423 14.791-0.72 24.02 1.924 2.646 4.103 5.112 6.258 7.58 15.756 18.036 13.999 41.107-4.422 56.898-26.605 22.806-56.01 41.469-86.529 58.506a1317.891 1317.891 0 0 0-37.025 21.476c-3.903 2.35-4.633 1.88-7.892-1.169C112.833 880.501 38 794.5 38 664.999V378.217z" fill="#FABB00" p-id="2893"></path>
        <path d="M413.589 655.553c-0.484-5.543-0.936-11.087-1.483-16.625-0.087-0.869-0.35-2.035-0.96-2.498-9.748-7.383-9.052-17.66-7.761-28.028 0.292-2.351-0.56-4.126-1.645-5.884-3.66-5.928-2.877-9.925 2.924-14.292 7.785-5.862 14.313-12.607 15.951-22.779-0.975-2.427-2.077-3.146-4.617-1.306-31.781 23.001-68.271 37.133-103.038 54.509-20.195 10.097-41.617 17.021-62.957 24.16-9.404 3.146-19.094 4.762-28.903 5.797-2.302 0.242-4.75 0.485-6.378-1.849 2.065-6.107 7.845-6.999 12.793-8.439 4.98-1.448 6.78-3.72 6.208-9.001-0.767-7.063-0.546-14.215-8.301-17.983-1.26-0.609-1.753-2.186-2.046-3.576-1.5-7.136-3.084-14.172-8.688-19.557-1.523-1.464-1.614-3.933-1.438-6.025 0.588-7.028-2.106-13.326-4.047-19.813-0.708-2.368-1.887-4.276-4.033-5.51-2.571-1.479-4.156-3.688-5.108-6.455-1.96-5.711-6.125-6.673-11.722-6.282-11.895 0.826-23.782 2.004-35.721 2.114-2.747 0.024-5.695 0.428-7.933-1.891 7.665-4.285 16.348-2.672 24.508-4.006 32.421-5.294 64.664-11.455 95.999-21.289 11.219-3.521 22.435-7.514 33.524-11.646 10.671-3.976 21.726-7.825 33.208-9.562 3.563-0.539 6.624-2.259 9.387-4.471 3.474-2.78 6.844-5.321 11.681-5.672 5.493-0.398 6.981-4.574 7.097-9.465 0.203-8.487-2.69-16.646-2.247-25.242 0.267-5.172-0.805-10.529-4.902-14.757-2.063-2.125-1.301-5.329-1.18-8.131 19.748 2.162 39.45 4.969 59.251 6.33 28.699 1.972 57.554 3.789 85.664-4.882 9.481-2.925 18.328-7.178 23.591-16.429 9.064-15.931 1.787-33.331-15.971-38.182-7.833-2.14-15.709-1.791-23.664-0.938-32.028 3.429-64.034 4.256-95.803-2.236-14.992-3.063-29.389-7.863-41.097-18.399-19.369-17.429-17.276-45.01 4.405-59.25 17.669-11.605 37.732-16.081 58.142-19.179 12.882-1.956 25.918-2.897 38.884-4.292 3.566-1.979 7.358-0.574 11.027-0.641 50.429-0.916 99.848 6.96 149.03 17.055a519.39 519.39 0 0 1 26.566 6.193c0.984-0.105 1.289 0.525 1.436 1.326-0.441 5.21-4.523 4.668-7.754 4.388-5.547-0.482-11.123-1.094-16.523-2.653-4.498-1.299-5.795 0.549-4.033 4.562 2.678 6.104 3.412 12.445 3.633 19.045 0.213 6.356 4.711 11.595 5.645 17.866 0.299 3.047-1.367 5.402-2.893 7.739-13.74 21.047-1.133 49.41 21.039 53.755 0.914 0.179 1.771 0.615 2.639 0.972 3.232 1.202 6.141 3.313 9.91 2.96 1.689-0.157 3.32 0.78 3.777 2.563 0.516 2.023-1.131 3.095-2.629 3.571-5.379 1.703-5.658 5.416-4.465 10.021 0.705 2.726 0.66 5.587 0.471 8.378-0.371 5.541 1 10.067 6.039 13.199 3.117 1.935 4.725 5.456 2.711 8.479-3.072 4.617-1.914 9.354-2.008 14.125 14.91 22.33 32.568 42.07 54.459 57.833 2.299 1.656 4.785 3.775 4.145 6.783-0.727 3.422-4.119 4.004-7.166 4.674-27.844 6.116-55.654 12.348-82.754 21.355-66.975 22.264-129.673 53.447-189.443 90.75-4.751 2.968-9.62 5.746-14.433 8.613z" fill="#FCC800" p-id="2894"></path>
        <path d="M648.781 465.545c-1.863-4.238-5.58-8.048-0.248-12.924 2.773-2.536 2.48-6.448-1.836-8.561-5.285-2.588-7.139-6.911-6.502-12.644 0.281-2.53 0.545-5.251-0.08-7.655-1.926-7.444-3.168-14.226 8.604-15.098-5.143-2.443-10.566-1.191-14.102-5.019 3.193-2.937 7.445-1.821 11.146-2.847 8.602-2.383 15.506-6.801 19.75-14.861 3.305-5.857 6.105-11.852 5.234-18.866 0.207-21.225-14.809-35.855-35.643-34.92-5.402 0.243-9.783 2.805-14.342 5.143-2.23 1.145-4.01 3.338-6.877 3.049-4.406-2.864-4.385-8.277-5.646-12.277-3.072-9.743-2.832-20.306-6.213-30.237-1.121-3.29 3.426-2.963 5.613-1.959 5.428 2.493 11.375 1.915 16.99 3.295 2.916 0.716 6.654 1.283 8.592-2.59 12.387 5.012 25.553 7.355 38.314 11.083 69.125 20.192 135.246 47.481 197.818 83.229 0.59 0.337 1.047 0.906 1.563 1.365-1.74 8.79 1.361 16.544 5.213 24.116 7.635 15.013 14.732 30.247 18.178 46.865 2.033 9.803 4.197 19.668 0.152 29.532-7.975 12.304-19.805 17.573-33.922 19.594-26.129 3.74-52.057 8.741-78.574 9.6-19.41 0.625-37.563-3.272-55.152-11.249-22.23-10.078-43.461-21.77-62.879-36.626-0.598-5.934-4.201-7.753-9.648-7.043-1.796-0.629-3.401-1.979-5.503-1.495z" fill="#FED000" p-id="2895"></path>
        <path d="M631.787 295.248c-1.688 1.916-3.891 1.527-5.881 0.995-29.451-7.872-59.428-12.751-89.625-16.768-27.787-3.697-55.562-6.36-83.607-5.398-2.675 0.091-5.046-0.772-7.513-1.437-11.015-10.357-20.919-21.268-23.611-37.093-4.633-27.244 21.732-55.249 49.208-52.402 22.488 2.331 41.548 12.65 59.529 25.074 33.586 23.205 65.535 48.495 94.066 77.848 2.737 2.812 4.969 6.108 7.434 9.181z" fill="#F8B700" p-id="2896"></path>
        <path d="M894.461 492.764c2.367-27.758-7.979-52.095-20.234-75.981-2.33-4.541-3.955-9.507-5.377-14.431-1.008-3.498-2.051-7.451 2.07-10.1 14.889 4.898 28.055 12.616 39.209 23.719 7.99 7.952 10.15 17.479 8.369 28.343-3.06 18.635-12.656 33.97-24.037 48.45z" fill="#47270D" p-id="2897"></path>
        <path d="M654.285 467.04c2.865-7.171 5.83-0.069 8.381 0.37 3.502 0.603 4.102 3.784 1.268 6.673-3.584-1.843-6.834-4.144-9.649-7.043zM351.8 430.187c-3.113-2.036-7.545 5.073-10.012-1.447 3.387 0.141 6.881-0.464 10.012 1.447z" fill="#FCC800" p-id="2898"></path>
        <path d="M144.687 544.34c15.397 0.095 30.718-0.967 46.018-2.656 5.065-0.559 9.021 1.401 10.961 6.676 0.699 1.897 0.019 4.56 2.245 5.666 10.875 5.402 9.646 16.13 11.024 25.508 0.643 4.369 0.311 8.109 4.696 11.452 4.253 3.241 4.038 9.605 5.208 14.753 0.467 2.06 0.074 4.58 2.604 5.177 6.428 1.521 7.54 6.146 7.51 11.712-0.008 1.354 0.463 2.716 0.742 4.07 1.724 8.333-0.509 13.232-10.077 14.137-3.699 0.351-8.115 2.359-10.537 6.276-0.878 0.953-2.016 1.224-3.247 1.257-7.383-0.609-14.688 1.306-22.075 0.738-9.714-0.864-19.385-2.018-28.459-5.899-2.172-0.931-5.229-1.066-5.368-4.518-11.433-6.079-21.445-13.978-29.974-23.708-8.871-10.117-14.404-21.798-14.991-35.35-0.597-13.789 6.236-23.659 17.968-30.07 4.819-2.636 9.854-5.458 15.752-5.221z" fill="#FED000" p-id="2899"></path>
        <path d="M155.932 638.688c10.554 5.65 22.058 7.495 33.789 8.436 7.523 1.795 15.048 0.106 22.573 0.015l2.787-0.028c12.878-0.515 25.42-2.787 37.584-7.105 16.184-5.741 32.832-10.445 48.421-17.5 11.387-5.152 22.937-10.195 33.958-16.27 18.125-9.989 37.662-17.208 55.458-27.873 8.791-5.268 17.889-10.049 25.727-16.811 1.291-1.11 2.966-3.512 4.666-2.358 2.527 1.706 0.545 4.16-0.279 6.253-14.897 20.509-35.108 35.315-54.823 50.55-23.765 18.362-48.269 35.778-74.301 50.773-13.854 7.983-28.374 14.831-43.636 20.163-9.559 3.341-18.965 6.622-29.068 6.551-18.843-0.129-34.09-8.511-46.263-22.359a116.819 116.819 0 0 1-17.95-27.386c-1.112-2.359-2.603-4.29 1.357-5.051z" fill="#F6A100" p-id="2900"></path>
        <path d="M667.656 385.402c-6.742 13.817-18.637 18.298-33.039 18.243-24.521-7.18-35.588-25.405-29.199-48.099 1.615-5.735 5.025-10.48 8.469-15.203 23.35-21.148 52.25-7.075 58.076 17.296 0.801 3.342 0.482 6.95 0.682 10.434-3.021-0.859-3.119-3.841-4.285-6.007-4.873-9.036-14.758-12.574-23.078-8.182-9.811 5.176-13.586 17.075-8.598 27.086 4.184 8.396 14.707 11.865 23.439 7.808 2.494-1.159 4.447-3.545 7.533-3.376z" fill="#FEFEFD" p-id="2901"></path>
        <path d="M667.656 385.402c-6.428 6.763-13.99 9.193-22.846 5.496-7.822-3.267-12.891-11.519-12.354-20.281 0.537-8.844 4.57-15.669 13.035-19.143 11.574-4.751 22.09 1.756 27.152 16.594 0.234 6.326-1.114 12.194-4.987 17.334z" fill="#48270D" p-id="2902"></path>
        <path d="M212.294 647.139c-7.527 2.246-15.05 2.23-22.573-0.015 7.523 1.414 15.05-2.494 22.573 0.015z" fill="#FCC800" p-id="2903"></path>
      </g>
    </g>
  </defs>
  <g transform="matrix(1 0 0 1 -753 -89 )">
    <use xlink:href="#widget14" filter="url(#filter13)" />
    <use xlink:href="#widget14" />
  </g>
</svg>