<svg class="icon" viewBox="0 0 1024 1024" version="1.1" xmlns="http://www.w3.org/2000/svg" p-id="1749" height="128" width="128"><path d="M510.464632 1002.685482C239.517375 1002.685482 19.869466 783.037573 19.869466 512.090316c0-270.947257 219.64791-490.595167 490.595166-490.595167 270.947257 0 490.595167 219.64791 490.595167 490.595167-0.361263 270.947257-219.828541 490.414535-490.595167 490.595166z m0-920.678779c-173.948139 0-330.736285 104.766273-397.38931 265.528312-66.653025 160.762039-29.804198 345.7287 93.205856 468.738755s307.976715 159.858882 468.738755 93.205856 265.528312-223.441171 265.528312-397.38931C940.186982 274.740519 747.814429 82.367966 510.464632 82.006703z m153.175516 704.282237c-80.200388 0-185.869818-58.163345-282.507673-155.704357-91.580173-92.302699-150.646675-196.707709-150.646675-266.070207 10.83789-65.027342 61.775975-115.965426 126.803316-126.622684 50.39619 0 126.622685 131.499735 126.622685 160.94267-0.541895 16.979361-6.141471 33.416828-15.714941 47.325455-2.709473 3.973893-5.057682 8.128418-6.502734 12.644205 26.914094 37.21009 59.427765 69.723761 96.818486 96.457223 5.238314-1.806315 10.295996-4.154525 15.173047-6.863997 15.353678-9.392838 32.694302-14.631152 50.757453-15.534309 31.068619 0 166.361616 83.090492 166.361615 126.622685-4.696419 68.45934-59.066502 122.648792-127.164579 126.803316zM354.399012 298.94514c-29.804198 11.379785-53.105662 35.223143-63.401658 65.388605 0 53.828188 53.647557 143.963309 133.486682 223.983066 84.354913 84.535544 176.115717 137.099312 238.975481 137.099312 32.333039-3.973893 58.705239-27.817252 65.749867-59.608397-31.610513-29.623567-67.556183-54.189451-106.572587-72.794496-7.586523 1.445052-14.811783 4.335156-21.495149 8.489681-13.727994 8.489681-29.262304 13.366731-45.338508 14.269888-40.642089 0-155.162463-114.520374-155.162463-155.162462 0.541895-16.618098 5.96084-32.874934 15.714941-46.422297 3.070736-4.335156 5.418945-9.031575 6.863997-14.269889-16.618098-37.21009-40.100194-71.530076-68.820603-100.973011z m0 0" p-id="1750"></path></svg>